<?xml version="1.0" standalone="no"?>
<!DOCTYPE svg PUBLIC "-//W3C//DTD SVG 20010904//EN"
 "http://www.w3.org/TR/2001/REC-SVG-20010904/DTD/svg10.dtd">
<svg version="1.0" xmlns="http://www.w3.org/2000/svg"
 width="262.000000pt" height="262.000000pt" viewBox="0 0 262.000000 262.000000"
 preserveAspectRatio="xMidYMid meet">
<metadata>
Created by potrace 1.11, written by Peter Selinger 2001-2013
</metadata>
<g transform="translate(0.000000,262.000000) scale(0.100000,-0.100000)"
fill="#000000" stroke="none">
<path d="M1249 2612 c-13 -2 -27 -54 -46 -177 -6 -34 -22 -69 -29 -62 -3 3
-20 1 -39 -3 -39 -9 -39 -10 -111 128 -20 39 -43 72 -49 72 -18 0 -108 -32
-122 -43 -7 -5 -11 -19 -8 -31 2 -11 7 -41 10 -66 3 -25 8 -66 11 -91 l6 -45
-46 -25 -46 -24 -52 51 c-103 100 -120 114 -132 106 -38 -23 -106 -77 -106
-83 0 -5 22 -54 50 -109 l49 -101 -34 -34 c-18 -19 -37 -35 -42 -35 -4 0 -53
23 -108 49 l-100 49 -18 -21 c-52 -62 -67 -83 -67 -96 0 -7 34 -48 75 -90 41
-43 75 -83 75 -90 0 -6 -9 -30 -20 -52 -15 -28 -26 -39 -38 -35 -24 6 -77 14
-147 22 -33 3 -63 8 -66 10 -8 5 -51 -138 -43 -145 3 -3 43 -26 88 -51 125
-69 115 -59 106 -108 -9 -53 -15 -59 -60 -65 -19 -2 -68 -10 -107 -18 -81 -15
-75 -7 -75 -107 0 -29 1 -55 3 -57 2 -2 17 -5 34 -8 17 -3 61 -10 99 -16 37
-7 73 -13 80 -14 16 -3 24 -26 25 -69 1 -35 -1 -37 -66 -71 -106 -55 -133 -71
-133 -82 0 -5 10 -38 22 -72 20 -58 24 -62 47 -58 14 2 47 6 72 9 25 2 66 7
91 11 l44 7 25 -46 24 -46 -55 -57 c-30 -32 -60 -61 -66 -65 -6 -4 -19 -18
-27 -32 -15 -23 -14 -26 23 -76 22 -29 41 -55 44 -57 3 -3 51 17 108 44 57 28
110 48 118 46 8 -1 44 -10 80 -18 71 -16 194 -13 216 6 15 12 19 40 7 38 -21
-3 -20 3 3 29 33 35 88 128 105 178 20 58 28 62 18 7 -13 -70 -18 -83 -49
-130 -16 -23 -26 -44 -23 -46 8 -9 118 21 199 54 172 68 208 72 317 33 88 -32
126 -41 153 -36 20 3 20 3 -4 75 -18 53 -25 94 -26 157 l0 85 -37 1 c-44 0
-135 45 -132 65 1 8 14 48 28 89 l27 75 97 -2 c54 -1 114 2 132 6 87 22 86 23
98 -7 6 -15 22 -81 36 -147 14 -66 30 -137 34 -157 10 -43 7 -48 -30 -48 -15
0 -30 -4 -34 -9 -3 -5 -7 -63 -9 -128 -3 -65 -8 -126 -11 -136 -9 -21 -26 -25
-132 -30 -46 -2 -85 -6 -88 -9 -3 -3 -10 -19 -15 -37 -9 -31 -8 -31 28 -32 74
-1 169 -28 215 -61 l29 -21 -64 -25 c-34 -14 -80 -36 -100 -48 l-37 -23 -58
35 c-32 19 -85 43 -118 53 -54 17 -60 21 -62 47 -4 70 -27 118 -78 163 -51 44
-109 42 -166 -7 l-41 -35 73 -38 c128 -67 217 -182 234 -299 l7 -45 -56 56
c-103 103 -241 152 -426 150 -58 -1 -123 -3 -145 -6 -22 -3 -74 -8 -116 -11
l-76 -7 -21 -43 -21 -43 56 -41 c31 -22 61 -40 67 -40 6 0 45 34 86 75 41 41
81 75 88 75 24 0 91 -40 87 -53 -2 -6 -6 -34 -9 -62 -3 -27 -8 -75 -12 -106
l-6 -57 38 -13 c22 -7 44 -14 49 -15 6 -2 20 -6 31 -9 19 -6 29 6 79 99 54 98
60 105 84 100 14 -3 33 -6 41 -7 31 -5 37 -19 55 -126 21 -124 16 -120 121
-113 l50 4 13 71 c7 40 15 88 18 107 6 44 12 50 54 57 19 2 38 6 43 6 5 1 30
-36 55 -83 76 -141 58 -128 140 -102 l71 23 -5 35 c-3 18 -7 50 -10 69 -3 19
-8 57 -11 85 l-6 49 46 23 46 22 58 -55 c31 -31 70 -68 86 -82 l30 -26 58 41
c32 23 58 42 58 43 0 6 -34 82 -64 144 l-33 69 32 38 33 37 53 -22 c30 -13 79
-36 111 -52 l56 -28 41 54 c23 30 41 59 41 65 0 5 -33 44 -72 86 -40 42 -74
82 -76 89 -5 21 37 95 51 90 11 -3 44 -8 168 -21 l56 -7 22 64 c11 34 21 66
21 70 0 4 -46 33 -103 64 l-104 56 7 45 c4 25 11 49 16 53 5 4 57 16 116 26
l106 17 4 70 c2 39 1 73 -2 78 -3 4 -50 15 -105 25 -121 21 -132 26 -133 62 0
16 -2 34 -4 41 -3 13 63 55 160 103 23 11 42 26 42 33 0 7 -9 40 -21 74 -20
60 -21 62 -52 57 -92 -14 -174 -25 -189 -25 -17 0 -62 73 -56 90 2 4 38 45 81
90 50 53 75 85 70 94 -21 34 -77 106 -83 106 -4 0 -39 -16 -78 -35 -142 -69
-135 -68 -171 -30 -17 18 -31 36 -31 40 0 5 67 151 91 197 7 13 -3 26 -53 61
l-62 45 -74 -72 c-41 -39 -80 -76 -86 -82 -8 -9 -23 -6 -57 12 -37 18 -46 28
-44 46 7 56 18 126 25 166 4 23 4 45 -1 48 -12 7 -120 44 -130 44 -4 0 -33
-47 -64 -104 -32 -58 -62 -103 -69 -101 -6 2 -26 6 -45 9 -18 3 -37 8 -41 13
-4 4 -15 56 -25 116 -18 103 -19 107 -44 108 -14 0 -42 1 -62 2 -20 1 -42 1
-50 -1z m157 -491 c-13 -68 -19 -188 -10 -194 5 -3 9 14 10 38 1 56 32 172 48
178 14 6 134 -24 194 -49 l39 -15 -33 -77 c-18 -43 -36 -95 -39 -117 -5 -36
-3 -33 21 25 29 69 66 134 83 145 19 11 193 -97 264 -165 l38 -36 -116 -90
c-63 -49 -130 -99 -148 -111 -18 -12 -42 -33 -55 -45 -17 -17 -21 -19 -16 -6
7 21 -12 29 -126 59 -95 26 -241 28 -330 5 -154 -39 -284 -138 -341 -259 -32
-70 -32 -69 -29 -317 3 -211 -60 -364 -177 -432 l-30 -17 -1 130 -1 130 37 23
c21 13 44 32 52 42 14 18 14 18 -6 2 -11 -10 -36 -24 -55 -32 l-35 -15 -12 45
c-7 24 -24 63 -38 85 -18 30 -23 44 -15 52 6 6 11 8 11 4 0 -4 23 4 50 18 63
32 65 41 3 14 -26 -11 -58 -19 -72 -17 -22 3 -27 12 -43 73 -19 75 -23 115
-10 116 4 0 33 2 64 4 90 6 96 20 8 18 -67 -2 -80 1 -84 15 -7 22 1 179 11
214 l8 28 45 -30 c25 -16 50 -30 55 -30 6 0 23 -7 38 -15 15 -8 25 -10 22 -4
-4 5 -24 18 -45 29 -22 11 -55 34 -74 50 -29 26 -33 35 -27 58 10 35 55 120
79 150 l18 23 42 -50 c23 -27 57 -60 75 -73 28 -20 27 -16 -15 31 -25 30 -54
69 -64 87 l-18 33 29 32 c40 43 144 129 155 129 5 0 12 -10 16 -22 15 -49 54
-124 79 -153 l26 -30 -25 50 c-32 63 -56 131 -56 160 0 16 13 29 50 49 46 25
160 69 166 64 1 -2 5 -23 9 -46 9 -62 44 -170 57 -178 7 -5 8 -3 3 6 -16 25
-45 229 -34 231 2 0 24 3 49 6 25 3 46 7 48 8 2 2 44 3 94 3 l90 -1 -6 -36z
m322 -708 c-23 -28 -175 -61 -278 -61 -85 1 -126 -13 -180 -58 -8 -7 -39 -15
-69 -18 -57 -6 -118 -23 -138 -39 -9 -6 -13 -6 -13 1 0 14 54 45 114 65 27 9
83 43 125 75 71 55 78 58 101 45 41 -22 155 -14 246 16 79 27 79 27 91 7 8
-15 8 -25 1 -33z"/>
<path d="M1570 1158 c-32 -9 -33 -11 -16 -22 11 -6 26 -18 35 -26 9 -8 23 -15
31 -14 8 0 25 -3 36 -7 19 -7 23 -3 26 22 8 51 -35 69 -112 47z"/>
</g>
</svg>
