<svg xmlns="http://www.w3.org/2000/svg" viewBox="0 0 260.45 260.45"><defs><style>.cls-1{fill:#ffc629;}</style></defs><title>Waverly Robotics Gearhead</title><g id="Layer_2" data-name="Layer 2"><g id="Layer_1-2" data-name="Layer 1"><path class="cls-1" d="M153.42,146.68s10.72-5.31,14.15.8a36.57,36.57,0,0,0-.85,5.55s-2.16-2.31-7.24-1.22C158.78,149.17,153.42,146.68,153.42,146.68Z"/><path class="cls-1" d="M260.45,137.56V122.89l-23.52-4.35q-.54-4.94-1.51-9.74l21.06-11.31-4.47-14-23.76,3q-2.13-4.76-4.69-9.26L240.11,60l-8.58-11.89L209.86,58.32q-3.48-3.85-7.32-7.36l10.37-21.61-11.84-8.64L183.65,37.17c-3-1.72-6.07-3.31-9.24-4.74l3.16-23.74L163.62,4.14l-11.42,21q-5.07-1-10.29-1.62L137.56,0H122.89l-4.35,23.52q-4.94.54-9.74,1.51L97.49,4l-14,4.47,3,23.76q-4.76,2.11-9.26,4.69L60,20.34,48.07,28.92,58.32,50.59Q54.47,54.07,51,57.9L29.35,47.54,20.71,59.38,37.17,76.8c-1.72,3-3.31,6.07-4.74,9.24L8.69,82.88,4.14,96.82l21,11.43c-.7,3.37-1.24,6.81-1.62,10.29L0,122.89v14.67l23.52,4.35q.54,4.93,1.51,9.74L4,163l4.47,14,23.76-3q2.11,4.75,4.69,9.26L20.34,200.49l8.58,11.89,21.67-10.25c.18.2.38.39.56.59a1.18,1.18,0,0,0,.12-.27c17.9,6.51,29.29,1.9,29.29,1.9s2.38-1.45,2-3.78a24.75,24.75,0,0,1-4.45.52c4.06-3.15,15.59-17.9,16.27-30.74,1.7,11.84-4.42,23.1-8.59,26.34a38.15,38.15,0,0,0,5.48-.74c11-2.19,16.81-6.06,30-10.16,13.54-4.22,24.92,8.52,34.68,5-1.62-1.08-7.86-19-4.6-31.45-7.33,3.25-18.44-5.43-18.44-5.43s6.78-15.18,6-17.89c12.76,2.58,24.75.26,32.36-2,3.74,9,6.95,30.79,9.18,37.6a80,80,0,0,1-8.18,1.45s-.09,20.73-1,25-2.12,4.55-8.77,4.14a54.43,54.43,0,0,0-14.06,1.43s-2.92,6.7-1.93,7c17.62-1.76,28.47,7.87,28.47,7.87S155.39,225.63,154,229c-6.78-7.59-21.56-10.84-23.86-11.11C132.75,205,117.43,183.6,102.52,203c26.31,9.62,30.92,29.54,30.77,37.66a2.72,2.72,0,0,1,0,.31l-3.58-3.42c-6.51-9.07-20.13-15.58-34.95-17.19-16.47-1.8-31.15,2.46-43,1.87l-4.25,8.87,11.84,8.65L76.8,223.28Q81.29,225.86,86,228l-3.16,23.74,13.94,4.54,11.43-21c3.37.71,6.81,1.25,10.29,1.63l4.35,23.52h14.67l4.35-23.52q4.93-.54,9.74-1.51L163,256.48l14-4.47-3-23.76q4.75-2.13,9.26-4.69l17.33,16.55,11.89-8.58-10.25-21.67c2.56-2.32,5-4.76,7.35-7.32l21.61,10.37,8.65-11.84-16.46-17.42q2.58-4.49,4.74-9.24l23.74,3.16,4.54-13.95-21-11.42q1.06-5.07,1.63-10.29ZM137.36,125.71c-2.86.5-13.42,7.86-13.42,7.86A37,37,0,0,0,102.79,139c2.71-5.78,11.93-7.6,16.06-9.39,4.42-1.92,7.18-5.66,16.92-12.14,8.87,6.16,24.65,1,35.17-3.18l2.62,4.64C171.93,122.46,148.92,128.8,137.36,125.71Zm37-28.47A5.82,5.82,0,0,0,170,99.59a35.85,35.85,0,0,0-4.66,9.32,63.26,63.26,0,0,1,3-9.67c-43.54-16.87-74.27,3.3-81.95,25.39-3.74,10.76.46,25.08-.81,33.54.13.32,0,.55,0,1-.54,5.69-2.36,30-21.34,38.44.49-12.36.2-20.66-.59-26.55,3.49-1.66,9.09-4.7,11-7.9-2,2.13-7.3,5.09-11.19,6.28-1.68-10.43-5.06-12.56-8.08-17.84,3.58-1,10.25-3.31,12.73-6.38-2.66,2-9.68,4.56-13.63,4.68A36.16,36.16,0,0,1,51.81,142a100.57,100.57,0,0,1-2-12.27c5.06.24,12.91.17,16.88-2.24-3.72,1.2-11.88,1.28-17.06.14a82.42,82.42,0,0,1,1.78-25.81c4.28,3.09,12.72,8.62,18.35,8.7-4.81-1.22-14.27-7.27-17.57-11.64A52.2,52.2,0,0,1,58.32,85c1.45-2.24,3-4.4,4.63-6.48,2.91,4.17,9.39,12.7,14.9,14.67-4.24-2.77-11.47-11.89-13-17A87.66,87.66,0,0,1,83.7,59.38c2,5.84,6.66,17.72,12.35,21.8-3.93-4.53-9.15-17.12-9.36-23.69A85.48,85.48,0,0,1,109.2,48c.69,6.25,2.59,18.53,7.15,23.69-2.72-5.1-4.94-17.77-4-24.45A86.41,86.41,0,0,1,141,45.8c-1.46,5.91-4.09,18.65-1.48,25.25-.84-5.87,1.53-19,4.84-24.79a97.15,97.15,0,0,1,24.23,7.15c-3.08,5.45-8.93,16.87-8.05,23.81.69-5.75,6.31-17.46,11.1-22.4a123.63,123.63,0,0,1,30.43,21C192,82.33,176.74,95.26,174.37,97.24Z"/></g></g></svg>